<mxfile host="app.diagrams.net" modified="2022-05-30T06:05:52.005Z" agent="5.0 (Windows)" etag="jTcybG7llJXez-Tcr2pz" version="18.1.3" type="github">
  <diagram id="Frb9RbtUqZkSpZEshx93" name="Page-1">
    <mxGraphModel dx="1108" dy="468" grid="0" gridSize="10" guides="1" tooltips="1" connect="1" arrows="1" fold="1" page="1" pageScale="1" pageWidth="850" pageHeight="1100" math="0" shadow="0">
      <root>
        <mxCell id="0" />
        <mxCell id="1" parent="0" />
        <mxCell id="-0FFrNoBDv5wXFAlJgWf-156" value="" style="group" parent="1" vertex="1" connectable="0">
          <mxGeometry x="6" y="44" width="837" height="449" as="geometry" />
        </mxCell>
        <mxCell id="-0FFrNoBDv5wXFAlJgWf-138" value="" style="group;fontSize=9;" parent="-0FFrNoBDv5wXFAlJgWf-156" vertex="1" connectable="0">
          <mxGeometry y="49.598523567173906" width="837.0000000000001" height="337.447097840951" as="geometry" />
        </mxCell>
        <mxCell id="-0FFrNoBDv5wXFAlJgWf-128" value="" style="group;fillColor=none;fontSize=9;" parent="-0FFrNoBDv5wXFAlJgWf-138" vertex="1" connectable="0">
          <mxGeometry width="837.0000000000001" height="337.447097840951" as="geometry" />
        </mxCell>
        <mxCell id="-0FFrNoBDv5wXFAlJgWf-1" value="" style="strokeWidth=0.5;shadow=0;dashed=0;align=left;html=1;shape=mxgraph.mockup.graphics.rrect;rSize=0;strokeColor=#6c8ebf;rounded=0;fontSize=9;fillColor=none;fontStyle=0" parent="-0FFrNoBDv5wXFAlJgWf-128" vertex="1">
          <mxGeometry width="507.27272727272737" height="337.447097840951" as="geometry" />
        </mxCell>
        <mxCell id="-0FFrNoBDv5wXFAlJgWf-2" value="No." style="strokeColor=#6c8ebf;fillColor=none;strokeWidth=0.5;shadow=0;dashed=0;align=left;html=1;shape=mxgraph.mockup.graphics.rrect;rSize=0;rounded=0;fontSize=9;fontStyle=0" parent="-0FFrNoBDv5wXFAlJgWf-1" vertex="1">
          <mxGeometry width="25.363636363636367" height="44.99294637879347" as="geometry" />
        </mxCell>
        <mxCell id="-0FFrNoBDv5wXFAlJgWf-3" value="Activities " style="strokeColor=#6c8ebf;fillColor=none;strokeWidth=0.5;shadow=0;dashed=0;align=left;html=1;shape=mxgraph.mockup.graphics.rrect;rSize=0;rounded=0;fontSize=9;fontStyle=0" parent="-0FFrNoBDv5wXFAlJgWf-1" vertex="1">
          <mxGeometry x="25.363636363636367" width="101.45454545454547" height="44.99294637879347" as="geometry" />
        </mxCell>
        <mxCell id="-0FFrNoBDv5wXFAlJgWf-6" value="February 2014" style="strokeColor=#6c8ebf;fillColor=none;strokeWidth=0.5;shadow=0;dashed=0;align=center;html=1;shape=mxgraph.mockup.graphics.rrect;rSize=0;rounded=0;fontSize=9;fontStyle=0" parent="-0FFrNoBDv5wXFAlJgWf-1" vertex="1">
          <mxGeometry x="126.81818181818184" width="101.45454545454547" height="22.496473189396735" as="geometry" />
        </mxCell>
        <mxCell id="-0FFrNoBDv5wXFAlJgWf-7" value="April 2014" style="strokeColor=#6c8ebf;fillColor=none;strokeWidth=0.5;shadow=0;dashed=0;align=center;html=1;shape=mxgraph.mockup.graphics.rrect;rSize=0;rounded=0;fontSize=9;fontStyle=0" parent="-0FFrNoBDv5wXFAlJgWf-1" vertex="1">
          <mxGeometry x="329.7272727272728" width="101.45454545454547" height="22.496473189396735" as="geometry" />
        </mxCell>
        <mxCell id="-0FFrNoBDv5wXFAlJgWf-20" value="" style="strokeColor=#6c8ebf;fillColor=none;strokeWidth=0.5;shadow=0;dashed=0;align=left;html=1;shape=mxgraph.mockup.graphics.rrect;rSize=0;rounded=0;fontSize=9;fontStyle=0" parent="-0FFrNoBDv5wXFAlJgWf-1" vertex="1">
          <mxGeometry y="44.99294637879347" width="126.81818181818184" height="292.4541514621576" as="geometry" />
        </mxCell>
        <mxCell id="-0FFrNoBDv5wXFAlJgWf-21" value="" style="strokeColor=#6c8ebf;fillColor=none;strokeWidth=0.5;shadow=0;dashed=0;align=left;html=1;shape=mxgraph.mockup.graphics.rrect;rSize=0;rounded=0;fontSize=9;fontStyle=0" parent="-0FFrNoBDv5wXFAlJgWf-1" vertex="1">
          <mxGeometry x="126.81818181818184" y="44.99294637879347" width="50.727272727272734" height="292.4541514621576" as="geometry" />
        </mxCell>
        <mxCell id="-0FFrNoBDv5wXFAlJgWf-22" value="" style="strokeColor=#6c8ebf;fillColor=none;strokeWidth=0.5;shadow=0;dashed=0;align=left;html=1;shape=mxgraph.mockup.graphics.rrect;rSize=0;rounded=0;fontSize=9;fontStyle=0" parent="-0FFrNoBDv5wXFAlJgWf-1" vertex="1">
          <mxGeometry x="177.54545454545456" y="44.99294637879347" width="50.727272727272734" height="292.4541514621576" as="geometry" />
        </mxCell>
        <mxCell id="-0FFrNoBDv5wXFAlJgWf-23" value="" style="strokeColor=#6c8ebf;fillColor=none;strokeWidth=0.5;shadow=0;dashed=0;align=left;html=1;shape=mxgraph.mockup.graphics.rrect;rSize=0;rounded=0;fontSize=9;fontStyle=0" parent="-0FFrNoBDv5wXFAlJgWf-1" vertex="1">
          <mxGeometry x="228.27272727272734" y="44.99294637879347" width="50.727272727272734" height="292.4541514621576" as="geometry" />
        </mxCell>
        <mxCell id="-0FFrNoBDv5wXFAlJgWf-24" value="" style="strokeColor=#6c8ebf;fillColor=none;strokeWidth=0.5;shadow=0;dashed=0;align=left;html=1;shape=mxgraph.mockup.graphics.rrect;rSize=0;rounded=0;fontSize=9;fontStyle=0" parent="-0FFrNoBDv5wXFAlJgWf-1" vertex="1">
          <mxGeometry x="279" y="44.99294637879347" width="50.727272727272734" height="292.4541514621576" as="geometry" />
        </mxCell>
        <mxCell id="-0FFrNoBDv5wXFAlJgWf-25" value="" style="strokeColor=#6c8ebf;fillColor=none;strokeWidth=0.5;shadow=0;dashed=0;align=left;html=1;shape=mxgraph.mockup.graphics.rrect;rSize=0;rounded=0;fontSize=9;fontStyle=0" parent="-0FFrNoBDv5wXFAlJgWf-1" vertex="1">
          <mxGeometry x="329.7272727272728" y="44.99294637879347" width="50.727272727272734" height="292.4541514621576" as="geometry" />
        </mxCell>
        <mxCell id="-0FFrNoBDv5wXFAlJgWf-26" value="" style="strokeColor=#6c8ebf;fillColor=none;strokeWidth=0.5;shadow=0;dashed=0;align=left;html=1;shape=mxgraph.mockup.graphics.rrect;rSize=0;rounded=0;fontSize=9;fontStyle=0" parent="-0FFrNoBDv5wXFAlJgWf-1" vertex="1">
          <mxGeometry x="380.4545454545455" y="44.99294637879347" width="50.727272727272734" height="292.4541514621576" as="geometry" />
        </mxCell>
        <mxCell id="-0FFrNoBDv5wXFAlJgWf-27" value="1" style="strokeWidth=0.5;shadow=0;dashed=0;align=left;html=1;shape=mxgraph.mockup.graphics.anchor;rounded=0;fontSize=9;fillColor=none;strokeColor=#6c8ebf;fontStyle=0" parent="-0FFrNoBDv5wXFAlJgWf-1" vertex="1">
          <mxGeometry y="44.99294637879347" width="16.909090909090914" height="22.496473189396735" as="geometry" />
        </mxCell>
        <mxCell id="-0FFrNoBDv5wXFAlJgWf-28" value="Problem Identification" style="strokeWidth=0.5;shadow=0;dashed=0;align=left;html=1;shape=mxgraph.mockup.graphics.anchor;rounded=0;fontSize=9;fillColor=none;strokeColor=#6c8ebf;fontStyle=0;labelBackgroundColor=none;" parent="-0FFrNoBDv5wXFAlJgWf-1" vertex="1">
          <mxGeometry x="25.363636363636367" y="44.99294637879347" width="101.45454545454547" height="22.496473189396735" as="geometry" />
        </mxCell>
        <mxCell id="-0FFrNoBDv5wXFAlJgWf-31" value="2" style="strokeWidth=0.5;shadow=0;dashed=0;align=left;html=1;shape=mxgraph.mockup.graphics.anchor;rounded=0;fontSize=9;fillColor=none;strokeColor=#6c8ebf;fontStyle=0" parent="-0FFrNoBDv5wXFAlJgWf-1" vertex="1">
          <mxGeometry y="67.4894195681902" width="16.909090909090914" height="22.496473189396735" as="geometry" />
        </mxCell>
        <mxCell id="-0FFrNoBDv5wXFAlJgWf-35" value="3" style="strokeWidth=0.5;shadow=0;dashed=0;align=left;html=1;shape=mxgraph.mockup.graphics.anchor;rounded=0;fontSize=9;fillColor=none;strokeColor=#6c8ebf;fontStyle=0" parent="-0FFrNoBDv5wXFAlJgWf-1" vertex="1">
          <mxGeometry y="89.98589275758694" width="16.909090909090914" height="22.496473189396735" as="geometry" />
        </mxCell>
        <mxCell id="-0FFrNoBDv5wXFAlJgWf-39" value="4" style="strokeWidth=0.5;shadow=0;dashed=0;align=left;html=1;shape=mxgraph.mockup.graphics.anchor;rounded=0;fontSize=9;fillColor=none;strokeColor=#6c8ebf;fontStyle=0" parent="-0FFrNoBDv5wXFAlJgWf-1" vertex="1">
          <mxGeometry y="112.48236594698369" width="16.909090909090914" height="22.496473189396735" as="geometry" />
        </mxCell>
        <mxCell id="-0FFrNoBDv5wXFAlJgWf-45" value="" style="strokeWidth=0.5;shadow=0;dashed=0;align=left;html=1;shape=mxgraph.mockup.graphics.rrect;rSize=0;strokeColor=#82b366;fillColor=#003300;rounded=0;fontSize=9;fontStyle=0" parent="-0FFrNoBDv5wXFAlJgWf-1" vertex="1">
          <mxGeometry x="304.36363636363643" y="95.61001105493612" width="50.727272727272734" height="11.248236594698367" as="geometry" />
        </mxCell>
        <mxCell id="-0FFrNoBDv5wXFAlJgWf-46" value="" style="strokeWidth=0.5;shadow=0;dashed=0;align=left;html=1;shape=mxgraph.mockup.graphics.rrect;rSize=0;strokeColor=#82b366;fillColor=#003300;rounded=0;fontSize=9;fontStyle=0" parent="-0FFrNoBDv5wXFAlJgWf-1" vertex="1">
          <mxGeometry x="355.0909090909091" y="118.10648424433286" width="50.727272727272734" height="11.248236594698367" as="geometry" />
        </mxCell>
        <mxCell id="-0FFrNoBDv5wXFAlJgWf-81" value="March 2014" style="strokeColor=#6c8ebf;fillColor=none;strokeWidth=0.5;shadow=0;dashed=0;align=center;html=1;shape=mxgraph.mockup.graphics.rrect;rSize=0;rounded=0;fontSize=9;fontStyle=0" parent="-0FFrNoBDv5wXFAlJgWf-1" vertex="1">
          <mxGeometry x="228.27272727272734" width="101.45454545454547" height="22.496473189396735" as="geometry" />
        </mxCell>
        <mxCell id="-0FFrNoBDv5wXFAlJgWf-85" value="" style="group;fillColor=none;strokeWidth=0.5;strokeColor=#6c8ebf;fontSize=9;" parent="-0FFrNoBDv5wXFAlJgWf-1" vertex="1" connectable="0">
          <mxGeometry x="126.81818181818184" y="22.496473189396735" width="101.45454545454547" height="22.496473189396735" as="geometry" />
        </mxCell>
        <mxCell id="-0FFrNoBDv5wXFAlJgWf-8" value="w1" style="strokeColor=#6c8ebf;fillColor=none;strokeWidth=0.5;shadow=0;dashed=0;align=left;html=1;shape=mxgraph.mockup.graphics.rrect;rSize=0;;rounded=0;fontSize=9;fontStyle=0" parent="-0FFrNoBDv5wXFAlJgWf-85" vertex="1">
          <mxGeometry width="25.363636363636367" height="22.496473189396735" as="geometry" />
        </mxCell>
        <mxCell id="-0FFrNoBDv5wXFAlJgWf-9" value="w2" style="strokeColor=#6c8ebf;fillColor=none;strokeWidth=0.5;shadow=0;dashed=0;align=left;html=1;shape=mxgraph.mockup.graphics.rrect;rSize=0;rounded=0;fontSize=9;fontStyle=0" parent="-0FFrNoBDv5wXFAlJgWf-85" vertex="1">
          <mxGeometry x="25.363636363636367" width="25.363636363636367" height="22.496473189396735" as="geometry" />
        </mxCell>
        <mxCell id="-0FFrNoBDv5wXFAlJgWf-10" value="w3" style="strokeColor=#6c8ebf;fillColor=none;strokeWidth=0.5;shadow=0;dashed=0;align=left;html=1;shape=mxgraph.mockup.graphics.rrect;rSize=0;rounded=0;fontSize=9;fontStyle=0" parent="-0FFrNoBDv5wXFAlJgWf-85" vertex="1">
          <mxGeometry x="50.727272727272734" width="25.363636363636367" height="22.496473189396735" as="geometry" />
        </mxCell>
        <mxCell id="-0FFrNoBDv5wXFAlJgWf-11" value="w4" style="strokeColor=#6c8ebf;fillColor=none;strokeWidth=0.5;shadow=0;dashed=0;align=left;html=1;shape=mxgraph.mockup.graphics.rrect;rSize=0;rounded=0;fontSize=9;fontStyle=0" parent="-0FFrNoBDv5wXFAlJgWf-85" vertex="1">
          <mxGeometry x="76.09090909090911" width="25.363636363636367" height="22.496473189396735" as="geometry" />
        </mxCell>
        <mxCell id="-0FFrNoBDv5wXFAlJgWf-86" value="" style="group;fillColor=none;strokeWidth=0.5;strokeColor=#6c8ebf;fontSize=9;" parent="-0FFrNoBDv5wXFAlJgWf-1" vertex="1" connectable="0">
          <mxGeometry x="228.27272727272734" y="22.496473189396735" width="101.45454545454547" height="22.496473189396735" as="geometry" />
        </mxCell>
        <mxCell id="-0FFrNoBDv5wXFAlJgWf-87" value="w1" style="strokeColor=#6c8ebf;fillColor=none;strokeWidth=0.5;shadow=0;dashed=0;align=left;html=1;shape=mxgraph.mockup.graphics.rrect;rSize=0;;rounded=0;fontSize=9;fontStyle=0" parent="-0FFrNoBDv5wXFAlJgWf-86" vertex="1">
          <mxGeometry width="25.363636363636367" height="22.496473189396735" as="geometry" />
        </mxCell>
        <mxCell id="-0FFrNoBDv5wXFAlJgWf-88" value="w2" style="strokeColor=#6c8ebf;fillColor=none;strokeWidth=0.5;shadow=0;dashed=0;align=left;html=1;shape=mxgraph.mockup.graphics.rrect;rSize=0;rounded=0;fontSize=9;fontStyle=0" parent="-0FFrNoBDv5wXFAlJgWf-86" vertex="1">
          <mxGeometry x="25.363636363636367" width="25.363636363636367" height="22.496473189396735" as="geometry" />
        </mxCell>
        <mxCell id="-0FFrNoBDv5wXFAlJgWf-89" value="w3" style="strokeColor=#6c8ebf;fillColor=none;strokeWidth=0.5;shadow=0;dashed=0;align=left;html=1;shape=mxgraph.mockup.graphics.rrect;rSize=0;rounded=0;fontSize=9;fontStyle=0" parent="-0FFrNoBDv5wXFAlJgWf-86" vertex="1">
          <mxGeometry x="50.727272727272734" width="25.363636363636367" height="22.496473189396735" as="geometry" />
        </mxCell>
        <mxCell id="-0FFrNoBDv5wXFAlJgWf-90" value="w4" style="strokeColor=#6c8ebf;fillColor=none;strokeWidth=0.5;shadow=0;dashed=0;align=left;html=1;shape=mxgraph.mockup.graphics.rrect;rSize=0;rounded=0;fontSize=9;fontStyle=0" parent="-0FFrNoBDv5wXFAlJgWf-86" vertex="1">
          <mxGeometry x="76.09090909090911" width="25.363636363636367" height="22.496473189396735" as="geometry" />
        </mxCell>
        <mxCell id="-0FFrNoBDv5wXFAlJgWf-91" value="" style="group;fillColor=none;strokeWidth=0.5;strokeColor=#6c8ebf;fontSize=9;" parent="-0FFrNoBDv5wXFAlJgWf-1" vertex="1" connectable="0">
          <mxGeometry x="329.7272727272728" y="22.496473189396735" width="101.45454545454547" height="22.496473189396735" as="geometry" />
        </mxCell>
        <mxCell id="-0FFrNoBDv5wXFAlJgWf-92" value="w1" style="strokeColor=#6c8ebf;fillColor=none;strokeWidth=0.5;shadow=0;dashed=0;align=left;html=1;shape=mxgraph.mockup.graphics.rrect;rSize=0;;rounded=0;fontSize=9;fontStyle=0" parent="-0FFrNoBDv5wXFAlJgWf-91" vertex="1">
          <mxGeometry width="25.363636363636367" height="22.496473189396735" as="geometry" />
        </mxCell>
        <mxCell id="-0FFrNoBDv5wXFAlJgWf-93" value="w2" style="strokeColor=#6c8ebf;fillColor=none;strokeWidth=0.5;shadow=0;dashed=0;align=left;html=1;shape=mxgraph.mockup.graphics.rrect;rSize=0;rounded=0;fontSize=9;fontStyle=0" parent="-0FFrNoBDv5wXFAlJgWf-91" vertex="1">
          <mxGeometry x="25.363636363636367" width="25.363636363636367" height="22.496473189396735" as="geometry" />
        </mxCell>
        <mxCell id="-0FFrNoBDv5wXFAlJgWf-94" value="w3" style="strokeColor=#6c8ebf;fillColor=none;strokeWidth=0.5;shadow=0;dashed=0;align=left;html=1;shape=mxgraph.mockup.graphics.rrect;rSize=0;rounded=0;fontSize=9;fontStyle=0" parent="-0FFrNoBDv5wXFAlJgWf-91" vertex="1">
          <mxGeometry x="50.727272727272734" width="25.363636363636367" height="22.496473189396735" as="geometry" />
        </mxCell>
        <mxCell id="-0FFrNoBDv5wXFAlJgWf-95" value="w4" style="strokeColor=#6c8ebf;fillColor=none;strokeWidth=0.5;shadow=0;dashed=0;align=left;html=1;shape=mxgraph.mockup.graphics.rrect;rSize=0;rounded=0;fontSize=9;fontStyle=0" parent="-0FFrNoBDv5wXFAlJgWf-91" vertex="1">
          <mxGeometry x="76.09090909090911" width="25.363636363636367" height="22.496473189396735" as="geometry" />
        </mxCell>
        <mxCell id="-0FFrNoBDv5wXFAlJgWf-32" value="Title Selection" style="strokeWidth=0.5;shadow=0;dashed=0;align=left;html=1;shape=mxgraph.mockup.graphics.anchor;rounded=0;fontSize=9;fillColor=none;strokeColor=#6c8ebf;fontStyle=0" parent="-0FFrNoBDv5wXFAlJgWf-1" vertex="1">
          <mxGeometry x="25.363636363636367" y="67.4894195681902" width="101.45454545454547" height="22.496473189396735" as="geometry" />
        </mxCell>
        <mxCell id="-0FFrNoBDv5wXFAlJgWf-36" value="Feasibility Study" style="strokeWidth=0.5;shadow=0;dashed=0;align=left;html=1;shape=mxgraph.mockup.graphics.anchor;rounded=0;fontSize=9;fillColor=none;strokeColor=#6c8ebf;fontStyle=0" parent="-0FFrNoBDv5wXFAlJgWf-1" vertex="1">
          <mxGeometry x="25.363636363636367" y="89.98589275758694" width="101.45454545454547" height="22.496473189396735" as="geometry" />
        </mxCell>
        <mxCell id="-0FFrNoBDv5wXFAlJgWf-40" value="Requirement Gathering" style="strokeWidth=0.5;shadow=0;dashed=0;align=left;html=1;shape=mxgraph.mockup.graphics.anchor;rounded=0;fontSize=9;fillColor=none;strokeColor=#6c8ebf;fontStyle=0" parent="-0FFrNoBDv5wXFAlJgWf-1" vertex="1">
          <mxGeometry x="25.363636363636367" y="112.48236594698369" width="101.45454545454547" height="22.496473189396735" as="geometry" />
        </mxCell>
        <mxCell id="-0FFrNoBDv5wXFAlJgWf-51" value="5" style="strokeWidth=0.5;shadow=0;dashed=0;align=left;html=1;shape=mxgraph.mockup.graphics.anchor;rounded=0;fontSize=9;fillColor=none;strokeColor=#6c8ebf;fontStyle=0" parent="-0FFrNoBDv5wXFAlJgWf-128" vertex="1">
          <mxGeometry y="134.9788391363804" width="16.909090909090914" height="22.496473189396735" as="geometry" />
        </mxCell>
        <mxCell id="-0FFrNoBDv5wXFAlJgWf-52" value="6" style="strokeWidth=0.5;shadow=0;dashed=0;align=left;html=1;shape=mxgraph.mockup.graphics.anchor;rounded=0;fontSize=9;fillColor=none;strokeColor=#6c8ebf;fontStyle=0" parent="-0FFrNoBDv5wXFAlJgWf-128" vertex="1">
          <mxGeometry y="157.47531232577714" width="16.909090909090914" height="22.496473189396735" as="geometry" />
        </mxCell>
        <mxCell id="-0FFrNoBDv5wXFAlJgWf-53" value="7" style="strokeWidth=0.5;shadow=0;dashed=0;align=left;html=1;shape=mxgraph.mockup.graphics.anchor;rounded=0;fontSize=9;fillColor=none;strokeColor=#6c8ebf;fontStyle=0" parent="-0FFrNoBDv5wXFAlJgWf-128" vertex="1">
          <mxGeometry y="179.97178551517388" width="16.909090909090914" height="22.496473189396735" as="geometry" />
        </mxCell>
        <mxCell id="-0FFrNoBDv5wXFAlJgWf-54" value="8" style="strokeWidth=0.5;shadow=0;dashed=0;align=left;html=1;shape=mxgraph.mockup.graphics.anchor;rounded=0;fontSize=9;fillColor=none;strokeColor=#6c8ebf;fontStyle=0" parent="-0FFrNoBDv5wXFAlJgWf-128" vertex="1">
          <mxGeometry y="202.46825870457064" width="16.909090909090914" height="22.496473189396735" as="geometry" />
        </mxCell>
        <mxCell id="-0FFrNoBDv5wXFAlJgWf-56" value="9" style="strokeWidth=0.5;shadow=0;dashed=0;align=left;html=1;shape=mxgraph.mockup.graphics.anchor;rounded=0;fontSize=9;fillColor=none;strokeColor=#6c8ebf;fontStyle=0" parent="-0FFrNoBDv5wXFAlJgWf-128" vertex="1">
          <mxGeometry y="224.96473189396738" width="16.909090909090914" height="22.496473189396735" as="geometry" />
        </mxCell>
        <mxCell id="-0FFrNoBDv5wXFAlJgWf-57" value="May 2014" style="strokeColor=#6c8ebf;fillColor=none;strokeWidth=0.5;shadow=0;dashed=0;align=center;html=1;shape=mxgraph.mockup.graphics.rrect;rSize=0;rounded=0;fontSize=9;fontStyle=0" parent="-0FFrNoBDv5wXFAlJgWf-128" vertex="1">
          <mxGeometry x="431.18181818181824" width="101.45454545454547" height="22.496473189396735" as="geometry" />
        </mxCell>
        <mxCell id="-0FFrNoBDv5wXFAlJgWf-58" value="July 2014" style="strokeColor=#6c8ebf;fillColor=none;strokeWidth=0.5;shadow=0;dashed=0;align=center;html=1;shape=mxgraph.mockup.graphics.rrect;rSize=0;rounded=0;fontSize=9;fontStyle=0" parent="-0FFrNoBDv5wXFAlJgWf-128" vertex="1">
          <mxGeometry x="634.0909090909093" width="101.45454545454547" height="22.496473189396735" as="geometry" />
        </mxCell>
        <mxCell id="-0FFrNoBDv5wXFAlJgWf-71" value="" style="strokeColor=#6c8ebf;fillColor=none;strokeWidth=0.5;shadow=0;dashed=0;align=left;html=1;shape=mxgraph.mockup.graphics.rrect;rSize=0;rounded=0;fontSize=9;fontStyle=0" parent="-0FFrNoBDv5wXFAlJgWf-128" vertex="1">
          <mxGeometry x="431.18181818181824" y="44.99294637879347" width="50.727272727272734" height="292.4541514621576" as="geometry" />
        </mxCell>
        <mxCell id="-0FFrNoBDv5wXFAlJgWf-72" value="" style="strokeColor=#6c8ebf;fillColor=none;strokeWidth=0.5;shadow=0;dashed=0;align=left;html=1;shape=mxgraph.mockup.graphics.rrect;rSize=0;rounded=0;fontSize=9;fontStyle=0" parent="-0FFrNoBDv5wXFAlJgWf-128" vertex="1">
          <mxGeometry x="481.90909090909105" y="44.99294637879347" width="50.727272727272734" height="292.4541514621576" as="geometry" />
        </mxCell>
        <mxCell id="-0FFrNoBDv5wXFAlJgWf-73" value="" style="strokeColor=#6c8ebf;fillColor=none;strokeWidth=0.5;shadow=0;dashed=0;align=left;html=1;shape=mxgraph.mockup.graphics.rrect;rSize=0;rounded=0;fontSize=9;fontStyle=0" parent="-0FFrNoBDv5wXFAlJgWf-128" vertex="1">
          <mxGeometry x="532.6363636363636" y="44.99294637879347" width="50.727272727272734" height="292.4541514621576" as="geometry" />
        </mxCell>
        <mxCell id="-0FFrNoBDv5wXFAlJgWf-74" value="" style="strokeColor=#6c8ebf;fillColor=none;strokeWidth=0.5;shadow=0;dashed=0;align=left;html=1;shape=mxgraph.mockup.graphics.rrect;rSize=0;rounded=0;fontSize=9;fontStyle=0" parent="-0FFrNoBDv5wXFAlJgWf-128" vertex="1">
          <mxGeometry x="583.3636363636365" y="44.99294637879347" width="50.727272727272734" height="292.4541514621576" as="geometry" />
        </mxCell>
        <mxCell id="-0FFrNoBDv5wXFAlJgWf-75" value="" style="strokeColor=#6c8ebf;fillColor=none;strokeWidth=0.5;shadow=0;dashed=0;align=left;html=1;shape=mxgraph.mockup.graphics.rrect;rSize=0;rounded=0;fontSize=9;fontStyle=0" parent="-0FFrNoBDv5wXFAlJgWf-128" vertex="1">
          <mxGeometry x="634.0909090909093" y="44.99294637879347" width="50.727272727272734" height="292.4541514621576" as="geometry" />
        </mxCell>
        <mxCell id="-0FFrNoBDv5wXFAlJgWf-76" value="" style="strokeColor=#6c8ebf;fillColor=none;strokeWidth=0.5;shadow=0;dashed=0;align=left;html=1;shape=mxgraph.mockup.graphics.rrect;rSize=0;rounded=0;fontSize=9;fontStyle=0" parent="-0FFrNoBDv5wXFAlJgWf-128" vertex="1">
          <mxGeometry x="684.818181818182" y="44.99294637879347" width="50.727272727272734" height="292.4541514621576" as="geometry" />
        </mxCell>
        <mxCell id="-0FFrNoBDv5wXFAlJgWf-77" value="" style="strokeWidth=0.5;shadow=0;dashed=0;align=left;html=1;shape=mxgraph.mockup.graphics.rrect;rSize=0;strokeColor=#82b366;fillColor=#003300;rounded=0;fontSize=9;fontStyle=0" parent="-0FFrNoBDv5wXFAlJgWf-128" vertex="1">
          <mxGeometry x="405.81818181818187" y="140.6029574337296" width="50.727272727272734" height="11.248236594698367" as="geometry" />
        </mxCell>
        <mxCell id="-0FFrNoBDv5wXFAlJgWf-78" value="" style="strokeWidth=0.5;shadow=0;dashed=0;align=left;html=1;shape=mxgraph.mockup.graphics.rrect;rSize=0;strokeColor=#82b366;fillColor=#003300;rounded=0;fontSize=9;fontStyle=0" parent="-0FFrNoBDv5wXFAlJgWf-128" vertex="1">
          <mxGeometry x="456.5454545454547" y="163.09943062312635" width="50.727272727272734" height="11.248236594698367" as="geometry" />
        </mxCell>
        <mxCell id="-0FFrNoBDv5wXFAlJgWf-80" value="" style="strokeWidth=0.5;shadow=0;dashed=0;align=left;html=1;shape=mxgraph.mockup.graphics.rrect;rSize=0;strokeColor=#b85450;fillColor=#660000;rounded=0;fontSize=9;fontStyle=0" parent="-0FFrNoBDv5wXFAlJgWf-128" vertex="1">
          <mxGeometry x="710.1818181818182" y="208.09237700191983" width="25.363636363636367" height="11.248236594698367" as="geometry" />
        </mxCell>
        <mxCell id="-0FFrNoBDv5wXFAlJgWf-47" value="System Analysis" style="strokeWidth=0.5;shadow=0;dashed=0;align=left;html=1;shape=mxgraph.mockup.graphics.anchor;rounded=0;fontSize=9;fillColor=none;strokeColor=#6c8ebf;fontStyle=0" parent="-0FFrNoBDv5wXFAlJgWf-128" vertex="1">
          <mxGeometry x="25.363636363636367" y="134.9788391363804" width="101.45454545454547" height="22.496473189396735" as="geometry" />
        </mxCell>
        <mxCell id="-0FFrNoBDv5wXFAlJgWf-48" value="System Design" style="strokeWidth=0.5;shadow=0;dashed=0;align=left;html=1;shape=mxgraph.mockup.graphics.anchor;rounded=0;fontSize=9;fillColor=none;strokeColor=#6c8ebf;fontStyle=0" parent="-0FFrNoBDv5wXFAlJgWf-128" vertex="1">
          <mxGeometry x="25.363636363636367" y="157.47531232577714" width="101.45454545454547" height="22.496473189396735" as="geometry" />
        </mxCell>
        <mxCell id="-0FFrNoBDv5wXFAlJgWf-49" value="Implementation" style="strokeWidth=0.5;shadow=0;dashed=0;align=left;html=1;shape=mxgraph.mockup.graphics.anchor;rounded=0;fontSize=9;fillColor=none;strokeColor=#6c8ebf;fontStyle=0" parent="-0FFrNoBDv5wXFAlJgWf-128" vertex="1">
          <mxGeometry x="25.363636363636367" y="179.97178551517388" width="101.45454545454547" height="22.496473189396735" as="geometry" />
        </mxCell>
        <mxCell id="-0FFrNoBDv5wXFAlJgWf-50" value="Testing" style="strokeWidth=0.5;shadow=0;dashed=0;align=left;html=1;shape=mxgraph.mockup.graphics.anchor;rounded=0;fontSize=9;fillColor=none;strokeColor=#6c8ebf;fontStyle=0" parent="-0FFrNoBDv5wXFAlJgWf-128" vertex="1">
          <mxGeometry x="25.363636363636367" y="202.46825870457064" width="101.45454545454547" height="22.496473189396735" as="geometry" />
        </mxCell>
        <mxCell id="-0FFrNoBDv5wXFAlJgWf-55" value="Deployment" style="strokeWidth=0.5;shadow=0;dashed=0;align=left;html=1;shape=mxgraph.mockup.graphics.anchor;rounded=0;fontSize=9;fillColor=none;strokeColor=#6c8ebf;fontStyle=0" parent="-0FFrNoBDv5wXFAlJgWf-128" vertex="1">
          <mxGeometry x="25.363636363636367" y="224.96473189396738" width="101.45454545454547" height="22.496473189396735" as="geometry" />
        </mxCell>
        <mxCell id="-0FFrNoBDv5wXFAlJgWf-96" value="" style="group;fillColor=none;strokeWidth=0.5;strokeColor=#6c8ebf;fontSize=9;" parent="-0FFrNoBDv5wXFAlJgWf-128" vertex="1" connectable="0">
          <mxGeometry x="431.18181818181824" y="22.496473189396735" width="101.45454545454547" height="22.496473189396735" as="geometry" />
        </mxCell>
        <mxCell id="-0FFrNoBDv5wXFAlJgWf-97" value="w1" style="strokeColor=#6c8ebf;fillColor=none;strokeWidth=0.5;shadow=0;dashed=0;align=left;html=1;shape=mxgraph.mockup.graphics.rrect;rSize=0;;rounded=0;fontSize=9;fontStyle=0" parent="-0FFrNoBDv5wXFAlJgWf-96" vertex="1">
          <mxGeometry width="25.363636363636367" height="22.496473189396735" as="geometry" />
        </mxCell>
        <mxCell id="-0FFrNoBDv5wXFAlJgWf-98" value="w2" style="strokeColor=#6c8ebf;fillColor=none;strokeWidth=0.5;shadow=0;dashed=0;align=left;html=1;shape=mxgraph.mockup.graphics.rrect;rSize=0;rounded=0;fontSize=9;fontStyle=0" parent="-0FFrNoBDv5wXFAlJgWf-96" vertex="1">
          <mxGeometry x="25.363636363636367" width="25.363636363636367" height="22.496473189396735" as="geometry" />
        </mxCell>
        <mxCell id="-0FFrNoBDv5wXFAlJgWf-99" value="w3" style="strokeColor=#6c8ebf;fillColor=none;strokeWidth=0.5;shadow=0;dashed=0;align=left;html=1;shape=mxgraph.mockup.graphics.rrect;rSize=0;rounded=0;fontSize=9;fontStyle=0" parent="-0FFrNoBDv5wXFAlJgWf-96" vertex="1">
          <mxGeometry x="50.727272727272734" width="25.363636363636367" height="22.496473189396735" as="geometry" />
        </mxCell>
        <mxCell id="-0FFrNoBDv5wXFAlJgWf-100" value="w4" style="strokeColor=#6c8ebf;fillColor=none;strokeWidth=0.5;shadow=0;dashed=0;align=left;html=1;shape=mxgraph.mockup.graphics.rrect;rSize=0;rounded=0;fontSize=9;fontStyle=0" parent="-0FFrNoBDv5wXFAlJgWf-96" vertex="1">
          <mxGeometry x="76.09090909090911" width="25.363636363636367" height="22.496473189396735" as="geometry" />
        </mxCell>
        <mxCell id="-0FFrNoBDv5wXFAlJgWf-101" value="June 2014" style="strokeColor=#6c8ebf;fillColor=none;strokeWidth=0.5;shadow=0;dashed=0;align=center;html=1;shape=mxgraph.mockup.graphics.rrect;rSize=0;rounded=0;fontSize=9;fontStyle=0" parent="-0FFrNoBDv5wXFAlJgWf-128" vertex="1">
          <mxGeometry x="532.6363636363636" width="101.45454545454547" height="22.496473189396735" as="geometry" />
        </mxCell>
        <mxCell id="-0FFrNoBDv5wXFAlJgWf-102" value="August 2014" style="strokeColor=#6c8ebf;fillColor=none;strokeWidth=0.5;shadow=0;dashed=0;align=center;html=1;shape=mxgraph.mockup.graphics.rrect;rSize=0;rounded=0;fontSize=9;fontStyle=0" parent="-0FFrNoBDv5wXFAlJgWf-128" vertex="1">
          <mxGeometry x="735.5454545454546" width="101.45454545454547" height="22.496473189396735" as="geometry" />
        </mxCell>
        <mxCell id="-0FFrNoBDv5wXFAlJgWf-107" value="" style="strokeColor=#6c8ebf;fillColor=none;strokeWidth=0.5;shadow=0;dashed=0;align=left;html=1;shape=mxgraph.mockup.graphics.rrect;rSize=0;rounded=0;fontSize=9;fontStyle=0" parent="-0FFrNoBDv5wXFAlJgWf-128" vertex="1">
          <mxGeometry x="735.5454545454546" y="44.99294637879347" width="50.727272727272734" height="292.4541514621576" as="geometry" />
        </mxCell>
        <mxCell id="-0FFrNoBDv5wXFAlJgWf-108" value="" style="strokeColor=#6c8ebf;fillColor=none;strokeWidth=0.5;shadow=0;dashed=0;align=left;html=1;shape=mxgraph.mockup.graphics.rrect;rSize=0;rounded=0;fontSize=9;fontStyle=0" parent="-0FFrNoBDv5wXFAlJgWf-128" vertex="1">
          <mxGeometry x="786.2727272727275" y="44.99294637879347" width="50.727272727272734" height="292.4541514621576" as="geometry" />
        </mxCell>
        <mxCell id="-0FFrNoBDv5wXFAlJgWf-109" value="" style="group;fillColor=none;strokeWidth=0.5;strokeColor=#6c8ebf;fontSize=9;" parent="-0FFrNoBDv5wXFAlJgWf-128" vertex="1" connectable="0">
          <mxGeometry x="532.6363636363636" y="22.496473189396735" width="101.45454545454547" height="22.496473189396735" as="geometry" />
        </mxCell>
        <mxCell id="-0FFrNoBDv5wXFAlJgWf-110" value="w1" style="strokeColor=#6c8ebf;fillColor=none;strokeWidth=0.5;shadow=0;dashed=0;align=left;html=1;shape=mxgraph.mockup.graphics.rrect;rSize=0;;rounded=0;fontSize=9;fontStyle=0" parent="-0FFrNoBDv5wXFAlJgWf-109" vertex="1">
          <mxGeometry width="25.363636363636367" height="22.496473189396735" as="geometry" />
        </mxCell>
        <mxCell id="-0FFrNoBDv5wXFAlJgWf-111" value="w2" style="strokeColor=#6c8ebf;fillColor=none;strokeWidth=0.5;shadow=0;dashed=0;align=left;html=1;shape=mxgraph.mockup.graphics.rrect;rSize=0;rounded=0;fontSize=9;fontStyle=0" parent="-0FFrNoBDv5wXFAlJgWf-109" vertex="1">
          <mxGeometry x="25.363636363636367" width="25.363636363636367" height="22.496473189396735" as="geometry" />
        </mxCell>
        <mxCell id="-0FFrNoBDv5wXFAlJgWf-112" value="w3" style="strokeColor=#6c8ebf;fillColor=none;strokeWidth=0.5;shadow=0;dashed=0;align=left;html=1;shape=mxgraph.mockup.graphics.rrect;rSize=0;rounded=0;fontSize=9;fontStyle=0" parent="-0FFrNoBDv5wXFAlJgWf-109" vertex="1">
          <mxGeometry x="50.727272727272734" width="25.363636363636367" height="22.496473189396735" as="geometry" />
        </mxCell>
        <mxCell id="-0FFrNoBDv5wXFAlJgWf-113" value="w4" style="strokeColor=#6c8ebf;fillColor=none;strokeWidth=0.5;shadow=0;dashed=0;align=left;html=1;shape=mxgraph.mockup.graphics.rrect;rSize=0;rounded=0;fontSize=9;fontStyle=0" parent="-0FFrNoBDv5wXFAlJgWf-109" vertex="1">
          <mxGeometry x="76.09090909090911" width="25.363636363636367" height="22.496473189396735" as="geometry" />
        </mxCell>
        <mxCell id="-0FFrNoBDv5wXFAlJgWf-114" value="" style="group;fillColor=none;strokeWidth=0.5;strokeColor=#6c8ebf;fontSize=9;" parent="-0FFrNoBDv5wXFAlJgWf-128" vertex="1" connectable="0">
          <mxGeometry x="634.0909090909093" y="22.496473189396735" width="101.45454545454547" height="22.496473189396735" as="geometry" />
        </mxCell>
        <mxCell id="-0FFrNoBDv5wXFAlJgWf-115" value="w1" style="strokeColor=#6c8ebf;fillColor=none;strokeWidth=0.5;shadow=0;dashed=0;align=left;html=1;shape=mxgraph.mockup.graphics.rrect;rSize=0;;rounded=0;fontSize=9;fontStyle=0" parent="-0FFrNoBDv5wXFAlJgWf-114" vertex="1">
          <mxGeometry width="25.363636363636367" height="22.496473189396735" as="geometry" />
        </mxCell>
        <mxCell id="-0FFrNoBDv5wXFAlJgWf-116" value="w2" style="strokeColor=#6c8ebf;fillColor=none;strokeWidth=0.5;shadow=0;dashed=0;align=left;html=1;shape=mxgraph.mockup.graphics.rrect;rSize=0;rounded=0;fontSize=9;fontStyle=0" parent="-0FFrNoBDv5wXFAlJgWf-114" vertex="1">
          <mxGeometry x="25.363636363636367" width="25.363636363636367" height="22.496473189396735" as="geometry" />
        </mxCell>
        <mxCell id="-0FFrNoBDv5wXFAlJgWf-117" value="w3" style="strokeColor=#6c8ebf;fillColor=none;strokeWidth=0.5;shadow=0;dashed=0;align=left;html=1;shape=mxgraph.mockup.graphics.rrect;rSize=0;rounded=0;fontSize=9;fontStyle=0" parent="-0FFrNoBDv5wXFAlJgWf-114" vertex="1">
          <mxGeometry x="50.727272727272734" width="25.363636363636367" height="22.496473189396735" as="geometry" />
        </mxCell>
        <mxCell id="-0FFrNoBDv5wXFAlJgWf-118" value="w4" style="strokeColor=#6c8ebf;fillColor=none;strokeWidth=0.5;shadow=0;dashed=0;align=left;html=1;shape=mxgraph.mockup.graphics.rrect;rSize=0;rounded=0;fontSize=9;fontStyle=0" parent="-0FFrNoBDv5wXFAlJgWf-114" vertex="1">
          <mxGeometry x="76.09090909090911" width="25.363636363636367" height="22.496473189396735" as="geometry" />
        </mxCell>
        <mxCell id="-0FFrNoBDv5wXFAlJgWf-119" value="" style="group;fillColor=none;strokeWidth=0.5;strokeColor=#6c8ebf;fontSize=9;" parent="-0FFrNoBDv5wXFAlJgWf-128" vertex="1" connectable="0">
          <mxGeometry x="735.5454545454546" y="22.496473189396735" width="101.45454545454547" height="22.496473189396735" as="geometry" />
        </mxCell>
        <mxCell id="-0FFrNoBDv5wXFAlJgWf-120" value="w1" style="strokeColor=#6c8ebf;fillColor=none;strokeWidth=0.5;shadow=0;dashed=0;align=left;html=1;shape=mxgraph.mockup.graphics.rrect;rSize=0;;rounded=0;fontSize=9;fontStyle=0" parent="-0FFrNoBDv5wXFAlJgWf-119" vertex="1">
          <mxGeometry width="25.363636363636367" height="22.496473189396735" as="geometry" />
        </mxCell>
        <mxCell id="-0FFrNoBDv5wXFAlJgWf-121" value="w2" style="strokeColor=#6c8ebf;fillColor=none;strokeWidth=0.5;shadow=0;dashed=0;align=left;html=1;shape=mxgraph.mockup.graphics.rrect;rSize=0;rounded=0;fontSize=9;fontStyle=0" parent="-0FFrNoBDv5wXFAlJgWf-119" vertex="1">
          <mxGeometry x="25.363636363636367" width="25.363636363636367" height="22.496473189396735" as="geometry" />
        </mxCell>
        <mxCell id="-0FFrNoBDv5wXFAlJgWf-122" value="w3" style="strokeColor=#6c8ebf;fillColor=none;strokeWidth=0.5;shadow=0;dashed=0;align=left;html=1;shape=mxgraph.mockup.graphics.rrect;rSize=0;rounded=0;fontSize=9;fontStyle=0" parent="-0FFrNoBDv5wXFAlJgWf-119" vertex="1">
          <mxGeometry x="50.727272727272734" width="25.363636363636367" height="22.496473189396735" as="geometry" />
        </mxCell>
        <mxCell id="-0FFrNoBDv5wXFAlJgWf-123" value="w4" style="strokeColor=#6c8ebf;fillColor=none;strokeWidth=0.5;shadow=0;dashed=0;align=left;html=1;shape=mxgraph.mockup.graphics.rrect;rSize=0;rounded=0;fontSize=9;fontStyle=0" parent="-0FFrNoBDv5wXFAlJgWf-119" vertex="1">
          <mxGeometry x="76.09090909090911" width="25.363636363636367" height="22.496473189396735" as="geometry" />
        </mxCell>
        <mxCell id="-0FFrNoBDv5wXFAlJgWf-143" value="D" style="strokeColor=#6c8ebf;fillColor=none;strokeWidth=0.5;shadow=0;dashed=0;align=center;html=1;shape=mxgraph.mockup.graphics.rrect;rSize=0;rounded=0;fontSize=9;fontStyle=0" parent="-0FFrNoBDv5wXFAlJgWf-128" vertex="1">
          <mxGeometry x="507.2678903456497" width="25.459165673420742" height="22.496473189396735" as="geometry" />
        </mxCell>
        <mxCell id="-0FFrNoBDv5wXFAlJgWf-129" value="" style="strokeWidth=0.5;shadow=0;dashed=0;align=left;html=1;shape=mxgraph.mockup.graphics.rrect;rSize=0;strokeColor=#b85450;fillColor=#660000;rounded=0;fontSize=9;fontStyle=0" parent="-0FFrNoBDv5wXFAlJgWf-138" vertex="1">
          <mxGeometry x="735.5454545454546" y="230.58885019131657" width="25.363636363636367" height="11.248236594698367" as="geometry" />
        </mxCell>
        <mxCell id="-0FFrNoBDv5wXFAlJgWf-131" value="" style="strokeColor=#6c8ebf;fillColor=none;strokeWidth=0.5;shadow=0;dashed=0;align=left;html=1;shape=mxgraph.mockup.graphics.rrect;rSize=0;rounded=0;fontSize=9;fontStyle=0" parent="-0FFrNoBDv5wXFAlJgWf-138" vertex="1">
          <mxGeometry x="152.18181818181822" y="44.99294637879347" width="50.727272727272734" height="292.4541514621576" as="geometry" />
        </mxCell>
        <mxCell id="-0FFrNoBDv5wXFAlJgWf-132" value="" style="strokeColor=#6c8ebf;fillColor=none;strokeWidth=0.5;shadow=0;dashed=0;align=left;html=1;shape=mxgraph.mockup.graphics.rrect;rSize=0;rounded=0;fontSize=9;fontStyle=0" parent="-0FFrNoBDv5wXFAlJgWf-138" vertex="1">
          <mxGeometry x="253.63636363636368" y="44.99294637879347" width="50.727272727272734" height="292.4541514621576" as="geometry" />
        </mxCell>
        <mxCell id="-0FFrNoBDv5wXFAlJgWf-133" value="" style="strokeColor=#6c8ebf;fillColor=none;strokeWidth=0.5;shadow=0;dashed=0;align=left;html=1;shape=mxgraph.mockup.graphics.rrect;rSize=0;rounded=0;fontSize=9;fontStyle=0" parent="-0FFrNoBDv5wXFAlJgWf-138" vertex="1">
          <mxGeometry x="304.36" y="44.99294637879347" width="50.64" height="292.4541514621576" as="geometry" />
        </mxCell>
        <mxCell id="-0FFrNoBDv5wXFAlJgWf-134" value="" style="strokeColor=#6c8ebf;fillColor=none;strokeWidth=0.5;shadow=0;dashed=0;align=left;html=1;shape=mxgraph.mockup.graphics.rrect;rSize=0;rounded=0;fontSize=9;fontStyle=0" parent="-0FFrNoBDv5wXFAlJgWf-138" vertex="1">
          <mxGeometry x="405.82" y="44.99294637879347" width="50.18" height="292.4541514621576" as="geometry" />
        </mxCell>
        <mxCell id="-0FFrNoBDv5wXFAlJgWf-135" value="" style="strokeColor=#6c8ebf;fillColor=none;strokeWidth=0.5;shadow=0;dashed=0;align=left;html=1;shape=mxgraph.mockup.graphics.rrect;rSize=0;rounded=0;fontSize=9;fontStyle=0" parent="-0FFrNoBDv5wXFAlJgWf-138" vertex="1">
          <mxGeometry x="558" y="44.99294637879347" width="50.727272727272734" height="292.4541514621576" as="geometry" />
        </mxCell>
        <mxCell id="-0FFrNoBDv5wXFAlJgWf-136" value="" style="strokeColor=#6c8ebf;fillColor=none;strokeWidth=0.5;shadow=0;dashed=0;align=left;html=1;shape=mxgraph.mockup.graphics.rrect;rSize=0;rounded=0;fontSize=9;fontStyle=0" parent="-0FFrNoBDv5wXFAlJgWf-138" vertex="1">
          <mxGeometry x="659.4545454545456" y="44.99294637879347" width="50.727272727272734" height="292.4541514621576" as="geometry" />
        </mxCell>
        <mxCell id="-0FFrNoBDv5wXFAlJgWf-137" value="" style="strokeColor=#6c8ebf;fillColor=none;strokeWidth=0.5;shadow=0;dashed=0;align=left;html=1;shape=mxgraph.mockup.graphics.rrect;rSize=0;rounded=0;fontSize=9;fontStyle=0" parent="-0FFrNoBDv5wXFAlJgWf-138" vertex="1">
          <mxGeometry x="760.909090909091" y="44.99294637879347" width="50.727272727272734" height="292.4541514621576" as="geometry" />
        </mxCell>
        <mxCell id="-0FFrNoBDv5wXFAlJgWf-139" value="" style="strokeWidth=0.5;shadow=0;dashed=0;align=left;html=1;shape=mxgraph.mockup.graphics.rrect;rSize=0;strokeColor=#82b366;fillColor=#003300;rounded=0;fontSize=9;fontStyle=0" parent="-0FFrNoBDv5wXFAlJgWf-156" vertex="1">
          <mxGeometry x="126.81818181818184" y="100.21558824331657" width="101.45454545454547" height="11.248236594698367" as="geometry" />
        </mxCell>
        <mxCell id="-0FFrNoBDv5wXFAlJgWf-140" value="" style="strokeWidth=0.5;shadow=0;dashed=0;align=left;html=1;shape=mxgraph.mockup.graphics.rrect;rSize=0;strokeColor=#82b366;fillColor=#003300;rounded=0;fontSize=9;fontStyle=0" parent="-0FFrNoBDv5wXFAlJgWf-156" vertex="1">
          <mxGeometry x="228.27272727272734" y="121.82637351187093" width="76.09090909090911" height="11.248236594698367" as="geometry" />
        </mxCell>
        <mxCell id="-0FFrNoBDv5wXFAlJgWf-141" value="" style="strokeWidth=0.5;shadow=0;dashed=0;align=left;html=1;shape=mxgraph.mockup.graphics.rrect;rSize=0;strokeColor=#b85450;fillColor=#660000;rounded=0;fontSize=9;fontStyle=0" parent="-0FFrNoBDv5wXFAlJgWf-156" vertex="1">
          <mxGeometry x="532.6363636363636" y="235.194427379697" width="177.54545454545456" height="11.248236594698367" as="geometry" />
        </mxCell>
        <mxCell id="-0FFrNoBDv5wXFAlJgWf-142" value="" style="strokeColor=#6c8ebf;fillColor=none;strokeWidth=0.5;shadow=0;dashed=0;align=left;html=1;shape=mxgraph.mockup.graphics.rrect;rSize=0;rounded=0;fontSize=9;fontStyle=0" parent="-0FFrNoBDv5wXFAlJgWf-156" vertex="1">
          <mxGeometry x="25.938021454112043" y="94.59146994596739" width="100.75923718712755" height="292.4541514621576" as="geometry" />
        </mxCell>
        <mxCell id="-0FFrNoBDv5wXFAlJgWf-149" value="" style="group" parent="-0FFrNoBDv5wXFAlJgWf-156" vertex="1" connectable="0">
          <mxGeometry x="396.0043742550656" y="405.64506774581514" width="174.28355184743742" height="39.83406850436145" as="geometry" />
        </mxCell>
        <mxCell id="-0FFrNoBDv5wXFAlJgWf-150" value="" style="strokeWidth=0.5;shadow=0;dashed=0;align=left;html=1;shape=mxgraph.mockup.graphics.rrect;rSize=0;strokeColor=#82b366;fillColor=#003300;rounded=0;fontSize=9;fontStyle=0" parent="-0FFrNoBDv5wXFAlJgWf-149" vertex="1">
          <mxGeometry x="42" y="1.9031695944991287" width="23.54" height="11.249846936372629" as="geometry" />
        </mxCell>
        <mxCell id="-0FFrNoBDv5wXFAlJgWf-151" value="" style="strokeWidth=0.5;shadow=0;dashed=0;align=left;html=1;shape=mxgraph.mockup.graphics.rrect;rSize=0;strokeColor=#b85450;fillColor=#660000;rounded=0;fontSize=9;fontStyle=0" parent="-0FFrNoBDv5wXFAlJgWf-149" vertex="1">
          <mxGeometry x="43" y="23.16580323081995" width="22.54" height="11.249846936372629" as="geometry" />
        </mxCell>
        <mxCell id="-0FFrNoBDv5wXFAlJgWf-152" value="&lt;font color=&quot;#003300&quot;&gt;Completed Tasks&lt;/font&gt;" style="text;html=1;strokeColor=none;fillColor=none;align=center;verticalAlign=middle;whiteSpace=wrap;rounded=0;labelBackgroundColor=none;labelBorderColor=none;fontSize=9;fontStyle=1;fontColor=#82B366;" parent="-0FFrNoBDv5wXFAlJgWf-149" vertex="1">
          <mxGeometry x="82.50286054827176" width="91.78069129916568" height="15.056694654320651" as="geometry" />
        </mxCell>
        <mxCell id="-0FFrNoBDv5wXFAlJgWf-153" value="Incomplete Tasks" style="text;html=1;strokeColor=none;fillColor=none;align=center;verticalAlign=middle;whiteSpace=wrap;rounded=0;labelBackgroundColor=none;labelBorderColor=none;fontSize=9;fontStyle=1;fontColor=#660000;" parent="-0FFrNoBDv5wXFAlJgWf-149" vertex="1">
          <mxGeometry x="85.49570917759237" y="21.256510100217387" width="87.79022646007152" height="15.056694654320651" as="geometry" />
        </mxCell>
        <mxCell id="-0FFrNoBDv5wXFAlJgWf-157" value="&lt;span style=&quot;background-color: rgb(255, 255, 255);&quot;&gt;&lt;font style=&quot;font-size: 16px;&quot;&gt;&lt;b&gt;Key :&lt;/b&gt;&lt;/font&gt;&lt;/span&gt;" style="text;html=1;align=center;verticalAlign=middle;whiteSpace=wrap;rounded=0;labelBackgroundColor=none;labelBorderColor=none;fontSize=9;" parent="-0FFrNoBDv5wXFAlJgWf-149" vertex="1">
          <mxGeometry x="-25.004374255065613" y="-3.5159055925631493" width="62" height="43.3499740969246" as="geometry" />
        </mxCell>
      </root>
    </mxGraphModel>
  </diagram>
</mxfile>
